name analog
datacolumns 19
datarows 55
range 0.0 0.027
endheader
time	ground_force_vx	ground_force_vy	ground_force_vz	ground_force_px	ground_force_py	ground_force_pz	l_ground_force_vx	l_ground_force_vy	l_ground_force_vz	l_ground_force_px	l_ground_force_py	l_ground_force_pz	ground_torque_x	ground_torque_y	ground_torque_z	l_ground_torque_x	l_ground_torque_y	l_ground_torque_z
0.0	-0.0	-0.0	-0.0	7.85052490234375	53.30197525024414	-584.520751953125	-5.851076126098633	-6.272749423980713	-284.2169494628906	-0.0	-0.0	-0.0	-0.0	-0.0	-0.0	80498.625	-7234.53125	-3566.080810546875
0.0005	-0.0	-0.0	-0.0	8.028945922851562	54.1912841796875	-588.01171875	-5.3226470947265625	-6.357177257537842	-279.3291320800781	-0.0	-0.0	-0.0	-0.0	-0.0	-0.0	78978.5546875	-7326.916015625	-3621.747314453125
0.001	-0.0	-0.0	-0.0	7.943964004516602	55.70439147949219	-591.9295654296875	-4.621097087860107	-6.178467750549316	-272.38629150390625	-0.0	-0.0	-0.0	-0.0	-0.0	-0.0	77241.234375	-7348.1943359375	-3302.325439453125
0.0015	-0.0	-0.0	-0.0	8.300923347473145	56.41737747192383	-596.2021484375	-4.266488075256348	-6.0100417137146	-269.53680419921875	-0.0	-0.0	-0.0	-0.0	-0.0	-0.0	75857.390625	-7728.4736328125	-3351.69921875
0.002	-0.0	-0.0	-0.0	8.381290435791016	57.141578674316406	-601.7741088867188	-3.483564138412476	-6.10067081451416	-264.6483764648437	-0.0	-0.0	-0.0	-0.0	-0.0	-0.0	74744.9609375	-7574.29296875	-3089.81201171875
0.0025	-0.0	-0.0	-0.0	8.470417022705078	58.46038818359375	-604.2274169921875	-3.464139938354492	-6.014674186706543	-260.8423767089844	-0.0	-0.0	-0.0	-0.0	-0.0	-0.0	74196.5234375	-8318.888671875	-3000.798583984375
0.003	-0.0	-0.0	-0.0	8.388137817382812	58.9011116027832	-608.4639282226562	-3.282299041748047	-6.0829033851623535	-260.1269226074219	-0.0	-0.0	-0.0	-0.0	-0.0	-0.0	73538.015625	-8029.822265625	-2941.378173828125
0.0035	-0.0	-0.0	-0.0	8.115731239318848	59.18258666992188	-608.557861328125	-3.382725238800049	-6.180185317993164	-258.3998718261719	-0.0	-0.0	-0.0	-0.0	-0.0	-0.0	73210.40625	-8377.263671875	-2882.1708984375
0.004	-0.0	-0.0	-0.0	8.118156433105469	59.96751022338867	-610.9818115234375	-3.1120314598083496	-6.008248805999756	-257.71142578125	-0.0	-0.0	-0.0	-0.0	-0.0	-0.0	72993.4765625	-8648.55859375	-2792.956298828125
0.0045000000000000005	-0.0	-0.0	-0.0	8.385787963867188	60.598514556884766	-611.3544921875	-2.9274559020996094	-6.275737285614014	-257.654541015625	-0.0	-0.0	-0.0	-0.0	-0.0	-0.0	72690.6796875	-8764.09375	-2762.431640625
0.005	-0.0	-0.0	-0.0	8.209967613220215	60.79472732543945	-612.736328125	-2.8462984561920166	-6.1017165184021	-255.2397308349609	-0.0	-0.0	-0.0	-0.0	-0.0	-0.0	72683.171875	-8878.21484375	-2797.045166015625
0.0055	-0.0	-0.0	-0.0	8.131369590759277	60.88398742675781	-612.4036254882812	-2.755153179168701	-6.798221588134766	-257.6537475585937	-0.0	-0.0	-0.0	-0.0	-0.0	-0.0	73053.6015625	-9219.9443359375	-2791.250244140625
0.006	-0.0	-0.0	-0.0	7.85052490234375	61.57553482055664	-614.8216552734375	-3.1075119972229004	-6.966921806335449	-259.4404296875	-0.0	-0.0	-0.0	-0.0	-0.0	-0.0	73522.6328125	-9353.5908203125	-2734.8330078125
0.006500000000000001	-0.0	-0.0	-0.0	8.371904373168945	61.50830078125	-611.0123291015625	-2.93822717666626	-6.9827752113342285	-260.1497802734375	-0.0	-0.0	-0.0	-0.0	-0.0	-0.0	73982.2109375	-9287.60546875	-2820.14599609375
0.007	-0.0	-0.0	-0.0	8.472179412841797	61.93999862670898	-611.0459594726562	-3.021636724472046	-7.162225723266602	-263.26031494140625	-0.0	-0.0	-0.0	-0.0	-0.0	-0.0	74460.5390625	-9762.1865234375	-2761.809326171875
0.0075	-0.0	-0.0	-0.0	8.46921157836914	61.67534637451172	-610.9669799804688	-3.53438663482666	-7.846646785736084	-265.3773498535156	-0.0	-0.0	-0.0	-0.0	-0.0	-0.0	75618.109375	-9899.1220703125	-2823.52978515625
0.008	-0.0	-0.0	-0.0	8.656354904174805	61.253116607666016	-607.4927368164062	-3.270897150039673	-7.780822277069092	-269.88299560546875	-0.0	-0.0	-0.0	-0.0	-0.0	-0.0	76275.7265625	-10001.595703125	-2880.76123046875
0.0085	-0.0	-0.0	-0.0	8.484030723571777	61.33074188232422	-603.9735107421875	-3.980283498764038	-8.384735107421875	-274.4792175292969	-0.0	-0.0	-0.0	-0.0	-0.0	-0.0	77372.953125	-10035.8173828125	-2939.743896484375
0.009000000000000001	-0.0	-0.0	-0.0	8.819563865661621	61.39858627319336	-600.7711791992188	-4.157472610473633	-8.749788284301758	-278.29736328125	-0.0	-0.0	-0.0	-0.0	-0.0	-0.0	78641.3515625	-10341.298828125	-2918.2412109375
0.0095	-0.0	-0.0	-0.0	8.561098098754883	60.7009162902832	-599.3217163085938	-4.252068042755127	-8.755892753601074	-282.162109375	-0.0	-0.0	-0.0	-0.0	-0.0	-0.0	79955.6796875	-10528.0263671875	-3001.316162109375
0.01	-0.0	-0.0	-0.0	8.653419494628906	60.35401916503906	-593.0269775390625	-4.25811767578125	-8.939006805419922	-287.688720703125	-0.0	-0.0	-0.0	-0.0	-0.0	-0.0	81483.125	-10972.25390625	-3057.585205078125
0.0105	-0.0	-0.0	-0.0	9.08656120300293	59.62824249267578	-588.4361572265625	-3.991985321044922	-9.459802627563477	-292.2522888183594	-0.0	-0.0	-0.0	-0.0	-0.0	-0.0	82394.15625	-11201.291015625	-2768.198974609375
0.011	-0.0	-0.0	-0.0	9.089611053466797	59.0836067199707	-586.5537719726562	-3.551631450653076	-9.977164268493652	-298.1250915527344	-0.0	-0.0	-0.0	-0.0	-0.0	-0.0	83818.0625	-11420.767578125	-2618.7060546875
0.0115	-0.0	-0.0	-0.0	9.099472045898438	58.79583740234375	-578.9683837890625	-3.02271580696106	-10.765464782714844	-304.09820556640625	-0.0	-0.0	-0.0	-0.0	-0.0	-0.0	85440.671875	-12293.1865234375	-2498.853515625
0.012	-0.0	-0.0	-0.0	9.006857872009277	57.68777847290039	-574.623779296875	-2.743402004241944	-10.595300674438477	-309.697509765625	-0.0	-0.0	-0.0	-0.0	-0.0	-0.0	87474.3203125	-12401.1982421875	-2375.5478515625
0.0125	-0.0	-0.0	-0.0	9.71698760986328	57.23562240600586	-568.5784301757812	-2.221160650253296	-10.863567352294922	-315.323974609375	-0.0	-0.0	-0.0	-0.0	-0.0	-0.0	89018.828125	-12840.6181640625	-2173.2158203125
0.013000000000000001	-0.0	-0.0	-0.0	9.395402908325195	56.53341293334961	-562.3184814453125	-1.5115326642990112	-11.053947448730469	-322.6025085449219	-0.0	-0.0	-0.0	-0.0	-0.0	-0.0	91083.5546875	-13157.611328125	-1998.2938232421875
0.0135	-0.0	-0.0	-0.0	9.909525871276855	56.22340393066406	-556.583251953125	-0.8836166858673096	-11.30517578125	-330.3111572265625	-0.0	-0.0	-0.0	-0.0	-0.0	-0.0	93284.0546875	-13346.8623046875	-1989.8231201171875
0.014	-0.0	-0.0	-0.0	10.077133178710938	54.83711242675781	-552.3155517578125	-0.3584092259407043	-11.01890754699707	-338.63494873046875	-0.0	-0.0	-0.0	-0.0	-0.0	-0.0	95315.375	-13485.595703125	-1612.066650390625
0.0145	-0.0	-0.0	-0.0	10.590055465698242	54.61838912963867	-544.2943725585938	0.074212908744812	-11.02938461303711	-346.2870788574219	-0.0	-0.0	-0.0	-0.0	-0.0	-0.0	97565.8984375	-13587.9189453125	-1782.5909423828125
0.015	-0.0	-0.0	-0.0	10.355932235717772	53.21085357666016	-538.8931274414062	0.1590854227542877	-10.672319412231444	-352.7153015136719	-0.0	-0.0	-0.0	-0.0	-0.0	-0.0	99996.015625	-13688.4306640625	-1665.0101318359375
0.0155	-0.0	-0.0	-0.0	10.69760036468506	52.51311874389648	-531.828369140625	-0.4435539245605469	-10.594878196716309	-363.10296630859375	-0.0	-0.0	-0.0	-0.0	-0.0	-0.0	102089.3515625	-13835.4609375	-1870.5902099609373
0.016	-0.0	-0.0	-0.0	11.135823249816896	51.38167190551758	-524.1036987304688	-1.1456750631332395	-10.856035232543944	-370.40521240234375	-0.0	-0.0	-0.0	-0.0	-0.0	-0.0	104424.9375	-13986.2939453125	-2072.4658203125
0.0165	-0.0	-0.0	-0.0	11.337631225585938	50.53694152832031	-517.4241943359375	-0.9951064586639404	-10.959569931030272	-379.1027221679688	-0.0	-0.0	-0.0	-0.0	-0.0	-0.0	106437.0703125	-13692.4384765625	-2158.646728515625
0.017	-0.0	-0.0	-0.0	12.092559814453123	49.45136260986328	-508.6266784667969	-1.7663835287094116	-11.0324125289917	-385.75091552734375	-0.0	-0.0	-0.0	-0.0	-0.0	-0.0	108374.8828125	-13955.8916015625	-2018.593994140625
0.0175	-0.0	-0.0	-0.0	12.651698112487791	47.94406509399414	-501.8847351074219	-2.468071937561035	-11.128532409667969	-394.7970581054688	-0.0	-0.0	-0.0	-0.0	-0.0	-0.0	111000.96875	-13881.185546875	-2140.392822265625
0.018000000000000002	-0.0	-0.0	-0.0	12.05166721343994	46.79346466064453	-491.7080993652344	-2.7379369735717773	-11.052254676818848	-402.22265625	-0.0	-0.0	-0.0	-0.0	-0.0	-0.0	113186.3828125	-14118.9775390625	-2310.459228515625
0.0185	-0.0	-0.0	-0.0	12.327780723571776	44.938438415527344	-484.2593994140625	-2.995712757110596	-11.481819152832031	-411.55316162109375	-0.0	-0.0	-0.0	-0.0	-0.0	-0.0	115134.21875	-14136.1123046875	-2143.593505859375
0.019	-0.0	-0.0	-0.0	12.493697166442873	43.62276840209961	-474.3541259765625	-3.0842087268829346	-11.75501537322998	-417.9182434082031	-0.0	-0.0	-0.0	-0.0	-0.0	-0.0	117194.203125	-14258.416015625	-2227.2177734375
0.0195	-0.0	-0.0	-0.0	12.680791854858398	42.53668594360352	-466.2145385742188	-3.1090846061706543	-12.180015563964844	-424.4855651855469	-0.0	-0.0	-0.0	-0.0	-0.0	-0.0	118693.3828125	-14305.259765625	-2081.787841796875
0.02	-0.0	-0.0	-0.0	13.359869003295898	41.98476028442383	-457.7899475097656	-2.830247640609741	-12.47450828552246	-431.501220703125	-0.0	-0.0	-0.0	-0.0	-0.0	-0.0	120739.1328125	-14252.0673828125	-2022.3360595703125
0.0205	-0.0	-0.0	-0.0	13.13161277770996	41.51270294189453	-450.7275390625	-3.4294543266296387	-13.571406364440918	-437.1037902832031	-0.0	-0.0	-0.0	-0.0	-0.0	-0.0	122513.5625	-14159.123046875	-2048.367431640625
0.021	-0.0	-0.0	-0.0	14.15761947631836	40.36266326904297	-441.2989501953125	-2.421482563018799	-13.362751007080078	-444.120849609375	-0.0	-0.0	-0.0	-0.0	-0.0	-0.0	124176.7578125	-14162.6884765625	-2054.865478515625
0.021500000000000002	-0.0	-0.0	-0.0	14.607937812805176	39.76118469238281	-434.20123291015625	-2.763304710388184	-14.299304962158203	-450.38818359375	-0.0	-0.0	-0.0	-0.0	-0.0	-0.0	125550.046875	-14177.15234375	-1930.801513671875
0.022	-0.0	-0.0	-0.0	14.452102661132812	38.625587463378906	-427.4022521972656	-2.661323547363281	-14.899492263793944	-457.7908935546875	-0.0	-0.0	-0.0	-0.0	-0.0	-0.0	127384.296875	-14059.236328125	-2070.1259765625
0.0225	-0.0	-0.0	-0.0	15.142613410949709	38.12929153442383	-419.2796630859375	-1.8765473365783687	-15.116569519042969	-465.9923400878906	-0.0	-0.0	-0.0	-0.0	-0.0	-0.0	129442.015625	-13952.6923828125	-1822.2718505859373
0.023	-0.0	-0.0	-0.0	15.062493324279783	37.61302947998047	-410.5995178222656	-1.8675261735916135	-16.232872009277344	-475.050537109375	-0.0	-0.0	-0.0	-0.0	-0.0	-0.0	132387.59375	-14103.373046875	-1814.957763671875
0.0235	-0.0	-0.0	-0.0	14.808944702148438	36.374732971191406	-401.2501525878906	-1.5127571821212769	-16.353471755981445	-483.5014343261719	-0.0	-0.0	-0.0	-0.0	-0.0	-0.0	134592.34375	-13854.806640625	-1666.4158935546875
0.024	-0.0	-0.0	-0.0	15.165786743164062	35.91474914550781	-393.36627197265625	-1.1673864126205444	-17.9105224609375	-492.9835205078125	-0.0	-0.0	-0.0	-0.0	-0.0	-0.0	136731.640625	-13609.806640625	-1753.98095703125
0.0245	-0.0	-0.0	-0.0	15.363752365112305	34.512996673583984	-383.9259643554688	-1.41937255859375	-18.97008514404297	-502.42919921875	-0.0	-0.0	-0.0	-0.0	-0.0	-0.0	139705.109375	-13382.3701171875	-1670.2177734375
0.025	-0.0	-0.0	-0.0	15.765536308288574	34.33002853393555	-375.4694519042969	-2.2919344902038574	-20.39748191833496	-513.2338256835938	-0.0	-0.0	-0.0	-0.0	-0.0	-0.0	142076.984375	-13305.0947265625	-1778.546630859375
0.025500000000000002	-0.0	-0.0	-0.0	15.24003791809082	33.75053405761719	-367.9345397949219	-3.454830408096313	-21.6436824798584	-523.9610595703125	-0.0	-0.0	-0.0	-0.0	-0.0	-0.0	144683.71875	-12574.6005859375	-1881.6947021484373
0.026000000000000002	-0.0	-0.0	-0.0	15.354331016540527	32.963077545166016	-355.7524108886719	-3.977090120315552	-23.047016143798828	-535.034423828125	-0.0	-0.0	-0.0	-0.0	-0.0	-0.0	147472.015625	-12200.1201171875	-1950.127197265625
0.0265	-0.0	-0.0	-0.0	15.339103698730469	31.98761558532715	-346.8226928710937	-4.356842517852783	-23.768503189086918	-543.9191284179688	-0.0	-0.0	-0.0	-0.0	-0.0	-0.0	150089.046875	-11682.3154296875	-2148.295166015625
0.027	-0.0	-0.0	-0.0	15.832998275756836	31.60517883300781	-336.28863525390625	-5.03624963760376	-24.651838302612305	-553.6747436523438	-0.0	-0.0	-0.0	-0.0	-0.0	-0.0	152276.015625	-11190.572265625	-2266.004638671875
